<?xml version="1.0" standalone="no"?><!DOCTYPE svg PUBLIC "-//W3C//DTD SVG 1.1//EN" "http://www.w3.org/Graphics/SVG/1.1/DTD/svg11.dtd"><svg t="1582598840797" class="icon" viewBox="0 0 1024 1024" version="1.1" xmlns="http://www.w3.org/2000/svg" p-id="5117" xmlns:xlink="http://www.w3.org/1999/xlink" width="64" height="64"><defs><style type="text/css"></style></defs><path d="M320 896c19.2 0 32-12.8 32-32v-307.2l329.6 329.6c12.8 12.8 32 12.8 44.8 0s12.8-32 0-44.8L396.8 512 726.4 182.4c12.8-12.8 12.8-32 0-44.8-6.4-6.4-12.8-9.6-22.4-9.6s-16 3.2-22.4 9.6L352 467.2V160c0-19.2-12.8-32-32-32s-32 12.8-32 32v704c0 19.2 12.8 32 32 32z" p-id="5118" fill="#1881EE"></path></svg>