<?xml version="1.0" standalone="no"?><!DOCTYPE svg PUBLIC "-//W3C//DTD SVG 1.1//EN" "http://www.w3.org/Graphics/SVG/1.1/DTD/svg11.dtd"><svg t="1582349095490" class="icon" viewBox="0 0 1024 1024" version="1.1" xmlns="http://www.w3.org/2000/svg" p-id="3519" xmlns:xlink="http://www.w3.org/1999/xlink" width="64" height="64"><defs><style type="text/css"></style></defs><path d="M192 672a226.72 226.72 0 0 0 188.64 96A288 288 0 0 1 224 506.08C227.2 348 361.6 224 519.68 224H864v48l88-88L864 96v48H521.12C317.6 144 145.76 305.28 144 508.96v20A276.16 276.16 0 0 0 192 672z" p-id="3520" fill="#ffffff"></path><path d="M832 352.96A226.56 226.56 0 0 0 643.68 256c6.08 3.04 12 6.24 17.6 9.76a290.56 290.56 0 0 1 44.32 33.12c3.52 3.04 6.88 6.4 10.08 9.6a274.08 274.08 0 0 1 30.4 36c4.32 5.92 8.48 12 12.16 18.24a288 288 0 0 1 41.6 160 4.48 4.48 0 0 1 0 1.44 120.32 120.32 0 0 1 0 13.12c0 4.16 0 8.16-1.44 12.16s-0.8 6.72-1.44 10.08-0.96 6.24-1.6 9.28-1.76 8-2.72 12-2.08 8.16-3.36 12.16A295.2 295.2 0 0 1 508.64 800H160v-48l-88 88L160 928v-48h342.88C706.4 880 878.24 718.72 880 515.04v-20a275.04 275.04 0 0 0-48-142.08z" p-id="3521" fill="#ffffff"></path><path d="M576 552a24 24 0 0 0-24-24H464v48h88a24 24 0 0 0 24-24zM560 472.96v-1.92A23.2 23.2 0 0 0 536.96 448H464v48h72.96A23.2 23.2 0 0 0 560 472.96z" p-id="3522" fill="#ffffff"></path><path d="M512 688a176 176 0 1 0-176-176 176 176 0 0 0 176 176z m-96-256a16 16 0 0 1 16-16h16v-16a16 16 0 0 1 32 0v16h32v-16a16 16 0 0 1 32 0v16a55.04 55.04 0 0 1 48 54.56v1.92a53.6 53.6 0 0 1-10.24 32A55.2 55.2 0 0 1 608 552a56 56 0 0 1-56 56H544v16a16 16 0 0 1-32 0v-16h-32v16a16 16 0 0 1-32 0v-16h-16a16 16 0 0 1 0-32v-128a16 16 0 0 1-16-16z" p-id="3523" fill="#ffffff"></path><path d="M256 512a256 256 0 1 0 256-256 256 256 0 0 0-256 256z m256-208a208 208 0 1 1-208 208 208 208 0 0 1 208-208z" p-id="3524" fill="#ffffff"></path></svg>