<?xml version="1.0" standalone="no"?><!DOCTYPE svg PUBLIC "-//W3C//DTD SVG 1.1//EN" "http://www.w3.org/Graphics/SVG/1.1/DTD/svg11.dtd"><svg t="1582512580588" class="icon" viewBox="0 0 1024 1024" version="1.1" xmlns="http://www.w3.org/2000/svg" p-id="2205" xmlns:xlink="http://www.w3.org/1999/xlink" width="64" height="64"><defs><style type="text/css"></style></defs><path d="M160 176h160v48H160z" p-id="2206" fill="#ffffff"></path><path d="M400 112a32 32 0 0 0-32-32H112a32 32 0 0 0-32 32v256h320zM160 336a16 16 0 1 1 16-16 16 16 0 0 1-16 16z m80 0a16 16 0 1 1 16-16 16 16 0 0 1-16 16z m80 0a16 16 0 1 1 16-16 16 16 0 0 1-16 16z m32-96a16 16 0 0 1-16 16H144a16 16 0 0 1-16-16v-80a16 16 0 0 1 16-16h192a16 16 0 0 1 16 16zM704 176h160v48H704z" p-id="2207" fill="#ffffff"></path><path d="M912 80H656a32 32 0 0 0-32 32v256h320V112a32 32 0 0 0-32-32zM704 336a16 16 0 1 1 16-16 16 16 0 0 1-16 16z m80 0a16 16 0 1 1 16-16 16 16 0 0 1-16 16z m80 0a16 16 0 1 1 16-16 16 16 0 0 1-16 16z m32-96a16 16 0 0 1-16 16H688a16 16 0 0 1-16-16v-80a16 16 0 0 1 16-16h192a16 16 0 0 1 16 16zM624 560h128v-48a12 12 0 0 1 0-4.16 32 32 0 0 1-10.24-8.64A32 32 0 1 1 800 480a30.08 30.08 0 0 1-4.96 16.8 19.04 19.04 0 0 1-1.44 2.4 33.76 33.76 0 0 1-8.64 7.84 12.96 12.96 0 0 0-0.96 4.96v160a69.76 69.76 0 0 1 0 8.16 80 80 0 0 1-64 70.4A157.28 157.28 0 0 1 720 768v14.72A112 112 0 0 0 816 672v-112h128V400H624zM544 736a16 16 0 0 0-16-16h-48v32h48a16 16 0 0 0 16-16z" p-id="2208" fill="#ffffff"></path><path d="M512 592a176 176 0 0 0-175.04 158.56A157.12 157.12 0 0 0 336 768v14.72a176 176 0 0 0 350.72 0V768a157.12 157.12 0 0 0-0.96-17.44A176 176 0 0 0 512 592z m32 256v16a16 16 0 0 1-32 0v-16h-16v16a16 16 0 0 1-32 0v-16h-16a16 16 0 0 1 0-32v-96a16 16 0 0 1 0-32h16v-16a16 16 0 0 1 32 0v16h16v-16a16 16 0 0 1 32 0v18.88A48 48 0 0 1 576 736a48.96 48.96 0 0 1-6.08 23.52A48 48 0 0 1 544 848z" p-id="2209" fill="#ffffff"></path><path d="M544 784h-64v32h64a16 16 0 0 0 0-32zM272 672v-112h128V400H80v160h128v-48a12 12 0 0 1 0-4.16 32 32 0 0 1-10.24-8.64A32 32 0 1 1 256 480a30.08 30.08 0 0 1-4.96 16.8 19.04 19.04 0 0 1-1.44 2.4 33.76 33.76 0 0 1-8.64 7.84 12.96 12.96 0 0 0-0.96 4.96v160a69.76 69.76 0 0 0 0 8.16 111.04 111.04 0 0 0 64 92.96V768a176 176 0 0 1 1.12-20.64c0-3.36 0-6.56 1.12-9.76A80 80 0 0 1 272 672z" p-id="2210" fill="#ffffff"></path></svg>