<?xml version="1.0" standalone="no"?><!DOCTYPE svg PUBLIC "-//W3C//DTD SVG 1.1//EN" "http://www.w3.org/Graphics/SVG/1.1/DTD/svg11.dtd"><svg t="1582502144633" class="icon" viewBox="0 0 1024 1024" version="1.1" xmlns="http://www.w3.org/2000/svg" p-id="5503" xmlns:xlink="http://www.w3.org/1999/xlink" width="64" height="64"><defs><style type="text/css"></style></defs><path d="M912 560h-20.8a240 240 0 0 0-75.2-130.56V272a96 96 0 0 0-96 96v8.64a237.76 237.76 0 0 0-34.08-6.72 186.4 186.4 0 0 1-13.92 18.4A208 208 0 0 1 623.04 432H656a16 16 0 0 1 0 32H368a16 16 0 0 1 0-32h33.28A211.36 211.36 0 0 1 352 388.48c-4.32-5.12-8.32-10.56-12.16-16A240 240 0 0 0 144 592a80 80 0 0 0-80 80 16 16 0 0 0 32 0 48 48 0 0 1 48-48h0.8A238.88 238.88 0 0 0 224 786.72V896a32 32 0 0 0 32 32h128a32 32 0 0 0 32-32v-48h112v48a32 32 0 0 0 32 32h128a32 32 0 0 0 32-32v-56.8A240 240 0 0 0 848 752h64a32 32 0 0 0 32-32v-128a32 32 0 0 0-32-32zM544 224a16 16 0 0 0-16-16h-48v32h48a16 16 0 0 0 16-16z" p-id="5504" fill="#ffffff"></path><path d="M512 432a176 176 0 1 0-135.68-64A176 176 0 0 0 512 432z m-80-240a16 16 0 0 1 16-16h16v-16a16 16 0 0 1 32 0v16h16v-16a16 16 0 0 1 32 0v18.88A48 48 0 0 1 576 224a48.96 48.96 0 0 1-6.08 23.52A48 48 0 0 1 544 336v16a16 16 0 0 1-32 0v-16h-16v16a16 16 0 0 1-32 0v-16h-16a16 16 0 0 1 0-32v-96a16 16 0 0 1-16-16z" p-id="5505" fill="#ffffff"></path><path d="M560 288a16 16 0 0 0-16-16h-64v32h64a16 16 0 0 0 16-16z" p-id="5506" fill="#ffffff"></path></svg>