<?xml version="1.0" standalone="no"?><!DOCTYPE svg PUBLIC "-//W3C//DTD SVG 1.1//EN" "http://www.w3.org/Graphics/SVG/1.1/DTD/svg11.dtd"><svg t="1582512987608" class="icon" viewBox="0 0 1024 1024" version="1.1" xmlns="http://www.w3.org/2000/svg" p-id="2395" xmlns:xlink="http://www.w3.org/1999/xlink" width="64" height="64"><defs><style type="text/css"></style></defs><path d="M576 560a16 16 0 0 0-16-16h-48v32h48a16 16 0 0 0 16-16zM576 608h-64v32h64a16 16 0 0 0 0-32z" p-id="2396" fill="#ffffff"></path><path d="M544 432a160 160 0 0 0-160 160 157.92 157.92 0 0 0 26.72 88.32 150.08 150.08 0 0 0 20.16 24.8s2.72 2.88 4.64 4.48A160 160 0 0 0 704 600.16v-2.24V592a160 160 0 0 0-160-160z m32 240v16a16 16 0 0 1-32 0v-16h-16v16a16 16 0 0 1-32 0v-16h-16a16 16 0 0 1 0-32v-96a16 16 0 0 1 0-32h16v-16a16 16 0 0 1 32 0v16h16v-16a16 16 0 0 1 32 0v18.88A48 48 0 0 1 608 560a48.96 48.96 0 0 1-6.08 23.52A48 48 0 0 1 576 672z" p-id="2397" fill="#ffffff"></path><path d="M169.6 530.88l25.28 4.96a1571.2 1571.2 0 0 0 160 18.88A192 192 0 0 1 544 400a190.4 190.4 0 0 1 96 25.92 1485.12 1485.12 0 0 0 103.52-130.72l6.24-8.96 8.32-12.32c1.76-2.72 3.52-5.6 5.28-8.16a324.16 324.16 0 0 0-40.32-35.2 283.52 283.52 0 0 0-27.36-18.56l-13.76-8c-6.56-3.68-13.28-7.2-20.16-10.24A346.24 346.24 0 0 0 512 160a352 352 0 0 0-334.4 242.08c-2.88 8.8-5.6 17.76-7.68 26.88v0.96a314.08 314.08 0 0 0-6.08 32A338.24 338.24 0 0 0 160 512v16.96z" p-id="2398" fill="#ffffff"></path><path d="M170.08 595.68a345.44 345.44 0 0 0 31.2 81.76c3.36 6.24 6.88 12.48 10.72 18.56s5.12 8.32 7.84 12.32 7.04 10.08 10.72 15.04c6.08 8.16 12.48 16 19.2 23.36a343.68 343.68 0 0 0 28.64 28.48c8.48-4.96 17.76-10.72 27.68-17.28l21.12-14.24c19.04-13.28 38.56-27.84 58.4-43.36a189.12 189.12 0 0 1-32-81.6A184.32 184.32 0 0 1 352 592v-5.28c-56.8-4.16-110.88-10.56-157.28-18.72l-25.28-4.96-6.08-1.28c-12.32-2.72-23.36-5.28-33.28-8C64 535.68 48 518.08 48 512c0-2.88 3.84-8.8 16-16a263.52 263.52 0 0 1 66.72-25.6 342.56 342.56 0 0 1 5.44-34.4C69.44 452.16 32 472 19.84 496A35.68 35.68 0 0 0 16 512c0 32 39.2 56.32 119.68 76q12.96 3.36 27.36 6.24z" p-id="2399" fill="#ffffff"></path><path d="M1004.16 496c-11.36-24-49.6-43.84-115.84-60a342.56 342.56 0 0 1 5.44 34.4A263.52 263.52 0 0 1 960 496c11.68 7.2 16 13.12 16 16 0 6.08-16 23.68-82.24 41.6-9.92 2.72-20.96 5.28-33.28 8l-6.24 1.28c-8 1.76-16 3.36-24.96 4.96q-22.08 3.84-45.6 7.2c-16 2.08-32 4-48 5.6v11.04a182.08 182.08 0 0 1-1.12 20.96 192 192 0 0 1-310.4 129.28 188.16 188.16 0 0 1-18.56-17.12 48 48 0 0 1-4.8-5.12 1376.48 1376.48 0 0 1-73.92 55.68l-21.12 14.24-5.28 3.52c-10.56 6.88-20.32 12.8-29.12 17.92a261.28 261.28 0 0 1-65.76 29.28h-8.8a28.48 28.48 0 0 1-8.32 0 3.52 3.52 0 0 1-1.76 0h-1.92l-1.28-0.96c-2.4-2.4-4-11.68 2.24-30.72A284.16 284.16 0 0 1 212.8 752c-7.36-9.12-14.4-18.56-20.8-28.32a302.4 302.4 0 0 0-40.32 90.08 50.4 50.4 0 0 0 9.6 48 41.92 41.92 0 0 0 31.2 11.52c25.12 0 60.64-13.92 107.04-42.24 7.68-4.64 16-9.76 24.16-16l5.76-3.84a352 352 0 0 0 524.48-215.52l6.88-1.44c9.76-1.92 18.88-4 27.52-6.24C968.8 568.32 1008 544 1008 512a35.68 35.68 0 0 0-3.84-16z" p-id="2400" fill="#ffffff"></path><path d="M788.16 187.68a57.28 57.28 0 0 1 33.76-4.96h1.12l1.12 0.8c3.84 3.84 5.44 24.8-22.4 76.16-6.4 11.84-14.4 25.28-24.16 40.48-0.96 1.76-2.24 3.52-3.36 5.28l-14.56 21.28c-5.44 7.84-11.04 16-16.96 23.84-22.56 29.92-48 61.6-76.32 93.28l0.8 0.8a85.92 85.92 0 0 1 9.12 8l6.4 6.4c2.56 2.56 4.96 5.28 7.36 8l7.68 9.6a192 192 0 0 1 33.44 72c34.4-3.36 67.36-7.84 98.08-13.28 8.48-1.6 16.96-3.2 24.96-4.96l9.44-1.92v-16a338.24 338.24 0 0 0-3.52-49.6 314.08 314.08 0 0 0-6.08-32v-0.96c-2.08-9.12-4.8-18.08-7.68-26.88a348 348 0 0 0-33.44-72.64c-2.56-4.16-5.12-8.32-7.84-12.32q10.08-16 18.24-29.76c28.64-50.08 39.52-86.4 32.96-109.6a38.24 38.24 0 0 0-9.6-16 36.32 36.32 0 0 0-21.12-10.4h-8.16a45.44 45.44 0 0 0-6.56 0H805.44a94.88 94.88 0 0 0-12.48 2.4 298.72 298.72 0 0 0-76.32 34.08 305.6 305.6 0 0 1 29.12 19.2 304 304 0 0 1 42.4-20.32z" p-id="2401" fill="#ffffff"></path></svg>