<?xml version="1.0" encoding="utf-8"?>
<!-- Generator: Adobe Illustrator 18.0.0, SVG Export Plug-In . SVG Version: 6.00 Build 0)  -->
<!DOCTYPE svg PUBLIC "-//W3C//DTD SVG 1.1//EN" "http://www.w3.org/Graphics/SVG/1.1/DTD/svg11.dtd">
<svg version="1.1" id="图层_1" xmlns="http://www.w3.org/2000/svg" xmlns:xlink="http://www.w3.org/1999/xlink" x="0px" y="0px"
	 viewBox="0 0 842 841.9" enable-background="new 0 0 842 841.9" xml:space="preserve">
<path fill="#CDCDCD" d="M826.5,369.2"/>
<path fill="#CDCDCD" d="M811.7,840.8h-86.4c-16.8,0-30.4-13.6-30.4-30.4V60.8H407.6v749.6c0,16.8-13.6,30.4-30.4,30.4h-95.5
	c-16.8,0-30.4-13.6-30.4-30.4V609.7H144.2v200.7c0,16.8-13.6,30.4-30.4,30.4H30.4C13.6,840.8,0,827.2,0,810.4
	C0,793.6,13.6,780,30.4,780h53.1V579.3c0-16.8,13.6-30.4,30.4-30.4h167.9c16.8,0,30.4,13.6,30.4,30.4V780h34.7V30.4
	c0-16.8,13.6-30.4,30.4-30.4h348.1c16.8,0,30.4,13.6,30.4,30.4V780h56c16.8,0,30.4,13.6,30.4,30.4
	C842.1,827.2,828.5,840.8,811.7,840.8L811.7,840.8z"/>
<path fill="#CDCDCD" d="M811.7,840.8"/>
</svg>
