<?xml version="1.0" encoding="utf-8"?>
<!-- Generator: Adobe Illustrator 18.0.0, SVG Export Plug-In . SVG Version: 6.00 Build 0)  -->
<!DOCTYPE svg PUBLIC "-//W3C//DTD SVG 1.1//EN" "http://www.w3.org/Graphics/SVG/1.1/DTD/svg11.dtd">
<svg version="1.1" id="图层_1" xmlns="http://www.w3.org/2000/svg" xmlns:xlink="http://www.w3.org/1999/xlink" x="0px" y="0px"
	 viewBox="0 0 830 841.9" enable-background="new 0 0 830 841.9" xml:space="preserve">
<polygon fill="#FED4A8" points="149,381.9 403,151.9 591,381.9 591,781.9 179,781.9 149,781.9 "/>
<path fill="#FC4E2B" d="M146,842.9c-0.6-0.3-1.1-0.8-1.7-1c-15.2-4.3-23-14.4-23-30.3c0-72.8,0-145.7,0-218.5c0-26,0-52,0-78
	c0-13.4,6.8-23.9,18.2-28.4c19-7.5,39,6,39.2,26.7c0.1,16.7,0,33.3,0,50c0,71.7,0,143.3,0,215c0,6.9,0,6.9,7.1,6.9
	c131.3,0,262.6,0,394,0c22.7,0,45.3,0.1,68,0.5c5,0.1,6.5-1.4,6.5-6.5c-0.1-88.5,0-177-0.3-265.5c0-13.6,9.9-27.1,24-28.6
	c16.3-1.8,28.9,7,32.3,22.3c0.5,2.1,0.4,4.3,0.4,6.4c0,99.7,0,199.3,0,299c0,15-7.9,25.1-22.5,28.9c-0.8,0.2-1.5,0.7-2.2,1
	C506,842.9,326,842.9,146,842.9z"/>
<path fill="#FC4E2B" d="M420,2.9c16.3,4.7,25.9,18.2,37.4,28.9C570.2,137,682.7,242.4,795.3,347.8c6.1,5.7,12,11.5,18.3,17
	c7.4,6.4,13.8,13.4,16.4,23.1c0,2.7,0,5.3,0,8c-0.4,0.9-0.9,1.8-1.1,2.7c-6.2,22.3-31.1,29.5-48,13.8c-10.4-9.6-20.7-19.3-31-29
	c-74.3-69.5-148.6-139.1-222.9-208.6c-35.8-33.5-71.5-66.9-107.3-100.3c-1.2-1.1-2.5-2.1-4.1-3.5c-9,8.3-17.7,16.4-26.5,24.6
	c-77,71.8-154,143.6-231,215.3c-35.8,33.4-72,66.4-107.3,100.3c-18,17.3-45.9,8.9-49.9-13.5c-0.1-0.6-0.6-1.2-0.9-1.8
	c0-2.7,0-5.3,0-8c3.9-15.4,17-23.4,27.5-33.2c108.4-101.3,217-202.4,325.6-303.5c13.9-12.9,27.5-26.2,41.8-38.7
	c4.8-4.2,11.4-6.4,17.1-9.5C414.7,2.9,417.3,2.9,420,2.9z"/>
</svg>
