<?xml version="1.0" encoding="utf-8"?>
<!-- Generator: Adobe Illustrator 18.0.0, SVG Export Plug-In . SVG Version: 6.00 Build 0)  -->
<!DOCTYPE svg PUBLIC "-//W3C//DTD SVG 1.1//EN" "http://www.w3.org/Graphics/SVG/1.1/DTD/svg11.dtd">
<svg version="1.1" id="图层_1" xmlns="http://www.w3.org/2000/svg" xmlns:xlink="http://www.w3.org/1999/xlink" x="0px" y="0px"
	 viewBox="0 0 842 841.9" enable-background="new 0 0 842 841.9" xml:space="preserve">
<path fill="#CDCDCD" d="M688.1,482.4c-15.9,0-28.8,12.9-28.8,28.8v271.9H184.8V511.2c0-15.9-12.9-28.8-28.8-28.8
	c-15.9,0-28.8,12.9-28.8,28.8v300.7c0,15.9,12.9,28.8,28.8,28.8h532.1c15.9,0,28.8-12.9,28.8-28.8V511.2
	C716.9,495.3,704,482.4,688.1,482.4L688.1,482.4z"/>
<path fill="#CDCDCD" d="M826.5,369.2L441.2,8.8c-11.1-10.4-28.3-10.4-39.4,0L15.2,369.2C3.5,380.1,2.9,398.3,13.7,410
	c5.7,6.1,13.4,9.2,21.1,9.2c7,0,14.1-2.6,19.7-7.7l367-342.1l365.6,342c11.6,10.9,29.9,10.3,40.8-1.4
	C838.8,398.4,838.1,380.1,826.5,369.2L826.5,369.2z"/>
<path fill="#666666" d="M826.5,369.2"/>
</svg>
