<?xml version="1.0" standalone="no"?><!DOCTYPE svg PUBLIC "-//W3C//DTD SVG 1.1//EN" "http://www.w3.org/Graphics/SVG/1.1/DTD/svg11.dtd"><svg t="1582379630624" class="icon" viewBox="0 0 1024 1024" version="1.1" xmlns="http://www.w3.org/2000/svg" p-id="4058" xmlns:xlink="http://www.w3.org/1999/xlink" width="64" height="64"><defs><style type="text/css"></style></defs><path d="M231.84 226.08l-7.84-4.32L112.96 160l-25.12-13.92a16 16 0 0 0-16 0 16 16 0 0 0-6.08 6.08A16.8 16.8 0 0 0 64 160v176a16 16 0 0 0 8.16 13.92l103.84 57.6 28.64 16 11.36 6.4a17.44 17.44 0 0 0 4 1.6 13.76 13.76 0 0 0 8.32 0 17.44 17.44 0 0 0 3.68-1.44A16 16 0 0 0 240 416V240a16 16 0 0 0-8.16-13.92z m-29.6 160L96 326.56V187.2l112 62.24v139.36l-4-2.24z" fill="#ffffff" p-id="4059"></path><path d="M208 249.44v139.36l-4-2.24-1.76-0.96L96 326.56V187.2z" fill="#ffffff" opacity=".5" p-id="4060"></path><path d="M381.92 152.16a16 16 0 0 0-6.08-6.08 16 16 0 0 0-16 0l-24.8 13.92L224 221.76l-7.84 4.32A16 16 0 0 0 208 240v176a16 16 0 0 0 7.84 13.76 17.44 17.44 0 0 0 4 1.6 13.76 13.76 0 0 0 8.32 0 17.44 17.44 0 0 0 3.68-1.44l144-80A16 16 0 0 0 384 336V160a16.8 16.8 0 0 0-2.08-7.84zM352 326.56l-112 62.24v-139.36l112-62.24z" fill="#ffffff" p-id="4061"></path><path d="M352 187.2v139.36l-112 62.24v-139.36l112-62.24z" fill="#ffffff" opacity=".5" p-id="4062"></path><path d="M381.92 152.16a16 16 0 0 0-6.08-6.08l-144-80a16 16 0 0 0-16 0l-144 80a16 16 0 0 0-6.08 6.08A16.8 16.8 0 0 0 64 160a16 16 0 0 0 8.16 13.92L96 187.2l112 62.24 8.16 4.48a16 16 0 0 0 16 0l8.16-4.48 112-62.24 23.84-13.28A16 16 0 0 0 384 160a16.8 16.8 0 0 0-2.08-7.84zM224 221.76L112.96 160 224 98.24 335.04 160z" fill="#ffffff" p-id="4063"></path><path d="M335.04 160L224 221.76 112.96 160 224 98.24 335.04 160z" fill="#ffffff" opacity=".5" p-id="4064"></path><path d="M807.84 226.08l-7.84-4.32L688.96 160l-25.12-13.92a16 16 0 0 0-16 0 16 16 0 0 0-6.08 6.08A16.8 16.8 0 0 0 640 160v176a16 16 0 0 0 8.16 13.92l144 80a17.44 17.44 0 0 0 4 1.6 13.76 13.76 0 0 0 8.32 0 17.44 17.44 0 0 0 3.68-1.44A16 16 0 0 0 816 416V240a16 16 0 0 0-8.16-13.92zM672 187.2l112 62.24v139.36l-112-62.24z" fill="#ffffff" p-id="4065"></path><path d="M784 249.44v139.36l-112-62.24V187.2l112 62.24z" fill="#ffffff" opacity=".5" p-id="4066"></path><path d="M957.92 152.16a16 16 0 0 0-6.08-6.08 16 16 0 0 0-16 0l-24.8 13.92L800 221.76l-7.84 4.32A16 16 0 0 0 784 240v176a16 16 0 0 0 7.84 13.76 17.44 17.44 0 0 0 4 1.6 13.76 13.76 0 0 0 8.32 0 17.44 17.44 0 0 0 3.68-1.44l11.36-6.4 28.64-16 103.68-57.6A16 16 0 0 0 960 336V160a16.8 16.8 0 0 0-2.08-7.84zM928 326.56l-106.24 59.04-1.76 0.96-4 2.24v-139.36l112-62.24z" fill="#ffffff" p-id="4067"></path><path d="M928 187.2v139.36l-106.24 59.04-1.76 0.96-4 2.24v-139.36z" fill="#ffffff" opacity=".5" p-id="4068"></path><path d="M957.92 152.16a16 16 0 0 0-6.08-6.08l-144-80a16 16 0 0 0-16 0l-144 80a16 16 0 0 0-6.08 6.08A16.8 16.8 0 0 0 640 160a16 16 0 0 0 8.16 13.92l23.84 13.28 112 62.24 8.16 4.48a16 16 0 0 0 16 0l8.16-4.48 112-62.24 23.84-13.28A16 16 0 0 0 960 160a16.8 16.8 0 0 0-2.08-7.84zM800 221.76L688.96 160 800 98.24 911.04 160z" fill="#ffffff" p-id="4069"></path><path d="M911.04 160L800 221.76 688.96 160 800 98.24 911.04 160z" fill="#ffffff" opacity=".5" p-id="4070"></path><path d="M231.84 754.08l-7.84-4.32L112.96 688l-25.12-13.92a16 16 0 0 0-16 0 16 16 0 0 0-6.08 6.08A16.8 16.8 0 0 0 64 688v176a16 16 0 0 0 8.16 13.92l144 80a17.44 17.44 0 0 0 4 1.6 13.92 13.92 0 0 0 8.32 0 17.44 17.44 0 0 0 3.68-1.44A16 16 0 0 0 240 944V768a16 16 0 0 0-8.16-13.92zM96 715.2l112 62.24v139.36l-112-62.24z" fill="#ffffff" p-id="4071"></path><path d="M208 777.44v139.36l-112-62.24V715.2l112 62.24z" fill="#ffffff" opacity=".5" p-id="4072"></path><path d="M381.92 680.16a16 16 0 0 0-6.08-6.08 16 16 0 0 0-16 0l-24.8 13.92L224 749.76l-7.84 4.32A16 16 0 0 0 208 768v176a16 16 0 0 0 7.84 13.76 17.44 17.44 0 0 0 4 1.6 13.92 13.92 0 0 0 8.32 0 17.44 17.44 0 0 0 3.68-1.44l144-80A16 16 0 0 0 384 864V688a16.8 16.8 0 0 0-2.08-7.84zM352 854.56l-112 62.24v-139.36l112-62.24z" fill="#ffffff" p-id="4073"></path><path d="M352 715.2v139.36l-112 62.24v-139.36l112-62.24z" fill="#ffffff" opacity=".5" p-id="4074"></path><path d="M381.92 680.16a16 16 0 0 0-6.08-6.08l-144-80a16 16 0 0 0-16 0l-11.68 6.56-28.64 16-103.68 57.6a16 16 0 0 0-6.08 6.08A16.8 16.8 0 0 0 64 688a16 16 0 0 0 8.16 13.92L96 715.2l112 62.24 8.16 4.48a16 16 0 0 0 16 0l8.16-4.48 112-62.24 23.84-13.28A16 16 0 0 0 384 688a16.8 16.8 0 0 0-2.08-7.84zM224 749.76L112.96 688l88.8-49.28 2.4-1.44h0.8l19.04-11.04L335.04 688z" fill="#ffffff" p-id="4075"></path><path d="M335.04 688L224 749.76 112.96 688l88.8-49.28 2.4-1.44h0.8l19.04-11.04z" fill="#ffffff" opacity=".5" p-id="4076"></path><path d="M807.84 754.08l-7.84-4.32L688.96 688l-25.12-13.92a16 16 0 0 0-16 0 16 16 0 0 0-6.08 6.08A16.8 16.8 0 0 0 640 688v176a16 16 0 0 0 8.16 13.92l144 80a17.44 17.44 0 0 0 4 1.6 13.76 13.76 0 0 0 8.32 0 17.44 17.44 0 0 0 3.68-1.44A16 16 0 0 0 816 944V768a16 16 0 0 0-8.16-13.92zM672 715.2l112 62.24v139.36l-112-62.24z" fill="#ffffff" p-id="4077"></path><path d="M784 777.44v139.36l-112-62.24V715.2l112 62.24z" fill="#ffffff" opacity=".5" p-id="4078"></path><path d="M957.92 680.16a16 16 0 0 0-6.08-6.08 16 16 0 0 0-16 0l-24.8 13.92L800 749.76l-7.84 4.32A16 16 0 0 0 784 768v176a16 16 0 0 0 7.84 13.76 17.44 17.44 0 0 0 4 1.6 13.76 13.76 0 0 0 8.32 0 17.44 17.44 0 0 0 3.68-1.44l144-80A16 16 0 0 0 960 864V688a16.8 16.8 0 0 0-2.08-7.84zM928 854.56l-112 62.24v-139.36l112-62.24z" fill="#ffffff" p-id="4079"></path><path d="M928 715.2v139.36l-112 62.24v-139.36l112-62.24z" fill="#ffffff" opacity=".5" p-id="4080"></path><path d="M813.76 618.56c2.08-5.92 4-11.84 5.76-17.92l-11.68-6.56a16 16 0 0 0-16 0l-144 80a16 16 0 0 1 16 0l25.12 13.92L800 626.24l18.88 10.4a16 16 0 0 1-5.12-18.08z m144 61.6a16 16 0 0 0-6.08-6.08L848 616.48l-28.64-16-11.68-6.56a16 16 0 0 0-16 0l-144 80a16 16 0 0 0-6.08 6.08 16.8 16.8 0 0 0-1.6 8 16 16 0 0 0 8.16 13.92l23.84 13.28 112 62.24 8.16 4.48a16 16 0 0 0 16 0l8.16-4.48 112-62.24 23.84-13.28A16 16 0 0 0 960 688a16.8 16.8 0 0 0-2.08-7.84zM800 749.76L688.96 688 800 626.24l18.88 10.4 2.4 1.44L911.04 688z" fill="#ffffff" p-id="4081"></path><path d="M911.04 688L800 749.76 688.96 688 800 626.24l18.88 10.4 2.4 1.44zM205.12 636.64h-0.8l-2.4 1.44h-1.12a16.96 16.96 0 0 1-5.44 0.96 16 16 0 0 1-15.04-10.56q-2.4-6.56-4.32-12.96a352 352 0 0 1 0-208.96q1.92-6.56 4.32-12.96a16 16 0 0 1 20.48-9.6h1.6l1.76 0.96a16 16 0 0 1 4 3.84 16 16 0 0 1 2.24 15.04c-0.8 2.24-1.6 4.32-2.24 6.56s-2.4 7.52-3.52 11.36a320.96 320.96 0 0 0 0 177.28c1.76 6.08 3.68 12 5.76 17.92a16 16 0 0 1-5.28 19.68zM512 864a346.88 346.88 0 0 1-150.88-33.92 16 16 0 0 1 13.76-28.8 321.44 321.44 0 0 0 274.24 0 16 16 0 1 1 13.76 28.8A346.88 346.88 0 0 1 512 864z" fill="#ffffff" opacity=".5" p-id="4082"></path><path d="M864 512a348.16 348.16 0 0 1-16 104.48q-1.92 6.4-4.32 12.96a16 16 0 0 1-15.04 10.56 16.96 16.96 0 0 1-5.44-0.96h-1.12l-2.4-1.44a16 16 0 0 1-5.12-18.08c2.08-5.92 4-11.84 5.76-17.92a320.96 320.96 0 0 0 0-177.28c-1.12-3.84-2.24-7.68-3.52-11.36s-1.44-4.32-2.24-6.56a16 16 0 0 1 1.44-16 16 16 0 0 1 4-3.84l1.76-0.96h1.6a16 16 0 0 1 20.48 9.6q2.4 6.4 4.32 12.96A348.16 348.16 0 0 1 864 512zM656 224a15.04 15.04 0 0 1-6.88-1.6 321.44 321.44 0 0 0-274.24 0 16 16 0 0 1-13.76-28.8 352 352 0 0 1 301.76 0A16 16 0 0 1 656 224z" fill="#ffffff" opacity=".5" p-id="4083"></path><path d="M581.76 504.8a55.2 55.2 0 0 0 10.24-32v-1.92A55.2 55.2 0 0 0 544 416v-16a16 16 0 0 0-32 0v16h-32v-16a16 16 0 0 0-32 0v16h-16a16 16 0 0 0 0 32v128a16 16 0 0 0 0 32h16v16a16 16 0 0 0 32 0v-16h32v16a16 16 0 0 0 32 0v-16h8a55.84 55.84 0 0 0 29.76-103.2zM528 448h8.96A23.2 23.2 0 0 1 560 471.04v1.92A23.2 23.2 0 0 1 536.96 496H464v-48z m24 128H464v-48h88a24 24 0 0 1 0 48z" fill="#ffffff" p-id="4084"></path></svg>