<?xml version="1.0" encoding="utf-8"?>
<!-- Generator: Adobe Illustrator 18.0.0, SVG Export Plug-In . SVG Version: 6.00 Build 0)  -->
<!DOCTYPE svg PUBLIC "-//W3C//DTD SVG 1.1//EN" "http://www.w3.org/Graphics/SVG/1.1/DTD/svg11.dtd">
<svg version="1.1" id="图层_1" xmlns="http://www.w3.org/2000/svg" xmlns:xlink="http://www.w3.org/1999/xlink" x="0px" y="0px"
	 viewBox="0 0 825 841.9" enable-background="new 0 0 825 841.9" xml:space="preserve">
<rect x="66" y="594.9" fill="#FED5AA" width="559" height="247"/>
<path fill="#FED5AA" d="M387.2,465.2h-33.4c-93.5,0-170.1-76.5-170.1-170.1v-33.4c0-93.5,76.5-170.1,170.1-170.1h33.4
	c93.5,0,170.1,76.5,170.1,170.1v33.4C557.3,388.6,480.8,465.2,387.2,465.2z"/>
<path fill="#FC4E2B" d="M789,842.9c-0.4-0.3-0.8-0.7-1.2-0.8c-18.6-5.5-25.9-15.2-25.9-34.4c0-24-0.9-48,0.2-72
	c1.3-28.2-9-51.7-26.1-72.9c-25.1-30.9-56.7-53.7-91.2-72.7c-50-27.5-103.4-45-159.9-53.6c-26-3.9-52.2-6.1-78.5-5.5
	c-51.8,1.3-101.9,11.9-150.7,28.6c-43.7,14.9-85.2,34.1-123,61c-20.6,14.7-39.4,31.3-53.6,52.5c-10.8,16.1-16.4,33.5-16.1,53
	c0.4,27.1,0.1,54.3,0.1,81.5c0,19.2-7.3,28.9-25.9,34.4c-0.4,0.1-0.8,0.6-1.2,0.8c-2.7,0-5.3,0-8,0c-1.1-0.4-2.1-0.9-3.2-1.2
	c-11.6-2.8-19.1-10-23-21.2c-0.6-1.9-1.2-3.7-1.8-5.6c0-39.7,0-79.3,0-119c0.3-0.9,0.9-1.8,1-2.8C2.9,678,8.6,664.2,15.7,651
	c20.8-38.5,50.7-68.7,85.9-94c47.5-34.3,100.7-55.8,157.3-69.8c1.3-0.3,2.6-0.9,4.6-1.5c-2-1.5-3.2-2.6-4.6-3.6
	c-19.4-14-36.9-30.2-51.7-49c-50.8-64.6-68.8-137.5-53.4-218.1c10.4-54.3,36.5-100.7,76.7-138.9C273.2,35.5,324,11.7,382.8,5
	c6.1-0.7,12.2-1.4,18.2-2.1c7.7,0,15.3,0,23,0c2.1,0.4,4.2,0.8,6.3,1.1c14,2,28.1,3.1,41.9,6.2C604.3,40.5,695,167.9,673.4,307.9
	c-11,70.9-46.5,127.8-103.5,171.2c-1.5,1.1-3,2.3-5.1,4.1c1.8,0.6,2.5,0.9,3.2,1.1c24.9,5.9,49.4,13.3,73.2,23
	c52.2,21.4,98.6,51.2,135.6,94.4c20.6,24,37.2,50.3,45.3,81.3c1,4,1.9,8,2.9,12c0,40,0,80,0,120c-0.4,1.2-0.9,2.5-1.3,3.7
	c-3,11.3-10.1,18.7-21.1,22.5c-1.9,0.6-3.7,1.2-5.6,1.8C794.3,842.9,791.7,842.9,789,842.9z M412.3,468.2
	c109.6-0.1,201.5-87.9,201.4-201.4C613.6,153.8,522.5,66,413,65.7c-110-0.3-201.6,87.8-201.7,201.1
	C211.3,380.2,303,467.9,412.3,468.2z"/>
</svg>
