<?xml version="1.0" standalone="no"?><!DOCTYPE svg PUBLIC "-//W3C//DTD SVG 1.1//EN" "http://www.w3.org/Graphics/SVG/1.1/DTD/svg11.dtd"><svg t="1582379909002" class="icon" viewBox="0 0 1024 1024" version="1.1" xmlns="http://www.w3.org/2000/svg" p-id="4602" xmlns:xlink="http://www.w3.org/1999/xlink" width="64" height="64"><defs><style type="text/css"></style></defs><path d="M512 960a32 32 0 1 1 32-32 32 32 0 0 1-32 32z m0-32zM320 960a32 32 0 1 1 32-32 32 32 0 0 1-32 32z m0-32zM704 960a32 32 0 1 1 32-32 32 32 0 0 1-32 32z m0-32z" p-id="4603" fill="#1881EE"></path><path d="M928 512m-32 0a32 32 0 1 0 64 0 32 32 0 1 0-64 0Z" p-id="4604" fill="#1881EE"></path><path d="M928 704m-32 0a32 32 0 1 0 64 0 32 32 0 1 0-64 0Z" p-id="4605" fill="#1881EE"></path><path d="M928 320m-32 0a32 32 0 1 0 64 0 32 32 0 1 0-64 0Z" p-id="4606" fill="#1881EE"></path><path d="M720 256H304a48 48 0 0 0-48 48v416a48 48 0 0 0 48 48h416a48 48 0 0 0 48-48V304a48 48 0 0 0-48-48z m0 448a16 16 0 0 1-16 16H320a16 16 0 0 1-16-16V320a16 16 0 0 1 16-16h384a16 16 0 0 1 16 16z" p-id="4607" fill="#1881EE"></path><path d="M336 688h352V336H336z m80-256a16 16 0 0 1 16-16h16v-16a16 16 0 0 1 32 0v16h32v-16a16 16 0 0 1 32 0v16a55.04 55.04 0 0 1 48 54.56v1.92a53.6 53.6 0 0 1-10.24 32A55.2 55.2 0 0 1 608 552a56 56 0 0 1-56 56H544v16a16 16 0 0 1-32 0v-16h-32v16a16 16 0 0 1-32 0v-16h-16a16 16 0 0 1 0-32v-128a16 16 0 0 1-16-16z" p-id="4608" fill="#1881EE"></path><path d="M560 472.96v-1.92A23.2 23.2 0 0 0 536.96 448H464v48h72.96A23.2 23.2 0 0 0 560 472.96zM576 552a24 24 0 0 0-24-24H464v48h88a24 24 0 0 0 24-24zM496 123.68V224h32V123.68a32 32 0 1 0-32 0zM688 123.68V224h32V123.68a32 32 0 1 0-32 0zM304 123.68V224h32V123.68a32 32 0 1 0-32 0zM432 160a16 16 0 0 0-32 0v64h32zM624 160a16 16 0 0 0-32 0v64h32zM496 912a16 16 0 0 0 32 0v-112h-32zM304 912a16 16 0 0 0 32 0v-112h-32zM688 912a16 16 0 0 0 32 0v-112h-32zM592 864a16 16 0 0 0 32 0v-64h-32zM400 864a16 16 0 0 0 32 0v-64h-32zM96 480a32 32 0 1 0 27.52 48H224v-32H123.52A32 32 0 0 0 96 480zM96 288a32 32 0 1 0 27.52 48H224v-32H123.52A32 32 0 0 0 96 288zM96 672a32 32 0 1 0 27.52 48H224v-32H123.52A32 32 0 0 0 96 672zM144 608a16 16 0 0 0 16 16h64v-32h-64a16 16 0 0 0-16 16zM144 416a16 16 0 0 0 16 16h64v-32h-64a16 16 0 0 0-16 16zM912 496h-112v32h112a16 16 0 0 0 0-32zM912 688h-112v32h112a16 16 0 0 0 0-32zM928 320a16 16 0 0 0-16-16h-112v32h112a16 16 0 0 0 16-16zM880 416a16 16 0 0 0-16-16h-64v32h64a16 16 0 0 0 16-16zM880 608a16 16 0 0 0-16-16h-64v32h64a16 16 0 0 0 16-16z" p-id="4609" fill="#1881EE"></path></svg>