<?xml version="1.0" encoding="utf-8"?>
<!-- Generator: Adobe Illustrator 18.0.0, SVG Export Plug-In . SVG Version: 6.00 Build 0)  -->
<!DOCTYPE svg PUBLIC "-//W3C//DTD SVG 1.1//EN" "http://www.w3.org/Graphics/SVG/1.1/DTD/svg11.dtd">
<svg version="1.1" id="图层_1" xmlns="http://www.w3.org/2000/svg" xmlns:xlink="http://www.w3.org/1999/xlink" x="0px" y="0px"
	 viewBox="0 0 842 841.9" enable-background="new 0 0 842 841.9" xml:space="preserve">
<path fill="#666666" d="M826.5,369.2"/>
<path fill="#CDCDCD" d="M830.3,810.1c0,17.6-14.2,31.8-31.8,31.8c-17.6,0-31.8-14.2-31.8-31.8v-87.7c0-79.5-162-192.1-347.8-192.1
	c-147.7,0-350.3,94.6-350.3,188.8v91.1c0,17.6-14.2,31.8-31.8,31.8c-17.6,0-31.8-14.2-31.8-31.8v-88.2v-22.1
	c0-47.7,70.7-169.9,263.7-215.1C199.1,436.9,153.1,357,153.1,266.1c0-146.1,118.4-264.5,264.5-264.5
	c146.1,0,264.5,118.5,264.5,264.5c0,89.2-44.4,167.8-112.2,216c195,43.5,260.3,172,260.3,217.6v22.1V810.1z M618.5,265.7
	c0-110.9-90-200.9-200.9-200.9s-200.9,90-200.9,200.9s90,200.9,200.9,200.9S618.5,376.6,618.5,265.7L618.5,265.7z M618.5,265.7"/>
</svg>
