<?xml version="1.0" standalone="no"?><!DOCTYPE svg PUBLIC "-//W3C//DTD SVG 1.1//EN" "http://www.w3.org/Graphics/SVG/1.1/DTD/svg11.dtd"><svg t="1582501590612" class="icon" viewBox="0 0 1024 1024" version="1.1" xmlns="http://www.w3.org/2000/svg" p-id="3211" xmlns:xlink="http://www.w3.org/1999/xlink" width="64" height="64"><defs><style type="text/css"></style></defs><path d="M512 320a192 192 0 1 0 192 192 192 192 0 0 0-192-192z m40 288H544v16a16 16 0 0 1-32 0v-16h-32v16a16 16 0 0 1-32 0v-16h-16a16 16 0 0 1 0-32v-128a16 16 0 0 1 0-32h16v-16a16 16 0 0 1 32 0v16h32v-16a16 16 0 0 1 32 0v16a55.04 55.04 0 0 1 48 54.56v1.92a53.6 53.6 0 0 1-10.24 32A55.2 55.2 0 0 1 608 552a56 56 0 0 1-56 56z" p-id="3212" fill="#ffffff"></path><path d="M552 528H464v48h88a24 24 0 0 0 0-48zM560 472.96v-1.92A23.2 23.2 0 0 0 536.96 448H464v48h72.96A23.2 23.2 0 0 0 560 472.96z" p-id="3213" fill="#ffffff"></path><path d="M765.12 649.12c4.48-8.16 8.48-16 12.16-25.12a229.92 229.92 0 0 0 9.92-27.2c1.44-4.32 2.56-8.64 3.68-12.96a10.24 10.24 0 0 0 0-1.12c2.24-8.64 4-17.6 5.44-26.56 0-3.04 0.8-5.92 1.12-8.96s0-5.28 0.96-8 0-7.36 0-11.2v-16-11.36-7.84a4.48 4.48 0 0 0 0-1.44c0-3.68 0-7.2-0.96-10.88-0.96-9.12-2.4-17.92-4.16-26.72-0.96-4.48-1.92-8.96-3.2-13.44q-1.6-6.88-3.84-13.44c-1.28-4.16-2.56-8.16-4-12s-3.68-9.76-5.76-14.56-3.36-7.84-5.28-11.68v-0.96c-2.08-4.32-4.16-8.48-6.4-12.48s-4.16-7.68-6.56-11.36a3.04 3.04 0 0 0 0-1.44c-2.24-3.68-4.64-7.36-7.04-10.88s-5.28-7.68-8-11.36l-1.28-1.76a228.8 228.8 0 0 0-15.36-18.4l-1.44-1.44q-9.44-10.24-19.68-19.68l-1.44-1.44a236.48 236.48 0 0 0-19.84-16 224 224 0 0 0-23.04-16A304.48 304.48 0 0 0 624 246.4c-4.32-1.76-7.84-3.2-11.68-4.8h-1.44l-13.44-4.48c-4.48-1.44-8.96-2.72-13.6-3.84s-9.28-2.24-13.92-3.2a142.56 142.56 0 0 0-14.4-2.56l-7.84-1.12-7.2-0.8L528 224h-32c-5.28 0-12.8 0.96-19.2 1.76a178.72 178.72 0 0 0-18.88 3.04A260.64 260.64 0 0 0 416 240l-7.84 2.88-9.44 4c-3.84 1.6-7.68 3.2-11.36 5.12s-8.48 4.16-12.48 6.4l-11.2 6.4c-4.32 2.56-8.48 5.12-12.48 8l-11.36 8a267.52 267.52 0 0 0-32 27.04 224 224 0 0 0-18.4 20.64 79.04 79.04 0 0 0-5.76 7.04l-2.88 3.84c-2.72 3.68-5.44 7.52-8 11.36s-5.12 7.52-7.52 11.68-4.64 7.84-6.88 12c-4.48 8.16-8.48 16-12.16 25.12-2.4 5.28-4.48 10.72-6.4 16-0.96 3.04-2.08 6.08-3.04 9.28v1.6c-1.44 4.32-2.56 8.64-3.68 12.96a10.24 10.24 0 0 0 0 1.12c-2.24 8.64-4 17.6-5.44 26.56 0 3.04-0.8 5.92-1.12 8.96s0 5.28-0.96 8 0 7.36-0.8 11.2 0 10.56 0 16v19.2a4.48 4.48 0 0 0 0 1.44c0 3.68 0 7.2 0.96 10.88 0.96 9.12 2.4 17.92 4.16 26.72 0.96 4.48 1.92 8.96 3.2 13.44q1.76 7.04 3.84 13.44c1.28 4.16 2.56 8.16 4 12s3.68 9.76 5.76 14.56 3.36 7.84 5.28 11.68v0.96c2.08 4.32 4.16 8.48 6.4 12.48s4.16 7.68 6.56 11.36a3.04 3.04 0 0 0 0.8 1.44c2.24 3.68 4.64 7.36 7.04 10.88s5.28 7.68 8 11.36l1.28 1.76a228.8 228.8 0 0 0 15.36 19.2l1.44 1.44q9.44 10.24 19.68 19.68l1.44 1.44a236.48 236.48 0 0 0 19.84 16 224 224 0 0 0 23.04 16A304.48 304.48 0 0 0 400 777.6l11.68 4.8h1.44l13.44 4.48c4.48 1.44 8.96 2.72 13.6 3.84s9.28 2.24 13.92 3.2a142.56 142.56 0 0 0 14.4 2.56l7.84 1.12h7.2q6.24 0 12.48 0.96h32c5.28 0 12.8-0.96 19.2-1.76a178.72 178.72 0 0 0 18.88-3.04A260.64 260.64 0 0 0 608 784l7.84-2.88 9.44-4a102.88 102.88 0 0 0 11.36-5.12c4.32-2.08 8.48-4.16 12.48-6.4l11.2-6.4c4.32-2.56 8.48-5.12 12.48-8l11.36-8a267.52 267.52 0 0 0 32-27.04 224 224 0 0 0 18.4-20.64 79.04 79.04 0 0 0 5.76-7.04l2.88-3.84c2.72-3.68 5.44-7.52 8-11.36s5.12-7.52 7.52-11.68 4.16-8.32 6.4-12.48zM512 736a224 224 0 1 1 224-224 224 224 0 0 1-224 224zM528 192V128h114.88a48 48 0 1 0 0-32H512a16 16 0 0 0-16 16v80h32zM496 832v64h-114.88a48 48 0 1 0 0 32H512a16 16 0 0 0 16-16v-80h-32zM726.56 274.72c7.84 7.2 16 14.88 22.72 22.72l94.24-94.24A44.32 44.32 0 0 0 864 208a48 48 0 1 0-48-48 44.32 44.32 0 0 0 4.8 20.48zM297.44 749.28c-7.84-7.2-16-14.88-22.72-22.72l-94.24 94.24A44.32 44.32 0 0 0 160 816a48 48 0 1 0 48 48 44.32 44.32 0 0 0-4.8-20.48zM176 157.12V320a16 16 0 0 0 16 16h52.8a294.08 294.08 0 0 1 24.16-32H208V157.12a48 48 0 1 0-32 0zM848 866.88V704a16 16 0 0 0-16-16h-52.8a294.08 294.08 0 0 1-24.16 32H816v146.88a48 48 0 1 0 32 0zM160 672a48 48 0 0 0-32-45.12v-26.72l66.56-48A290.4 290.4 0 0 1 192 515.2l-89.44 64A16 16 0 0 0 96 592v34.88A48 48 0 1 0 160 672zM912 304a48 48 0 0 0-16 93.12v26.72l-66.56 48A290.4 290.4 0 0 1 832 508.8l89.44-64A16 16 0 0 0 928 432v-34.88A48 48 0 0 0 912 304z" p-id="3214" fill="#ffffff"></path></svg>