<?xml version="1.0" encoding="utf-8"?>
<!-- Generator: Adobe Illustrator 18.0.0, SVG Export Plug-In . SVG Version: 6.00 Build 0)  -->
<!DOCTYPE svg PUBLIC "-//W3C//DTD SVG 1.1//EN" "http://www.w3.org/Graphics/SVG/1.1/DTD/svg11.dtd">
<svg version="1.1" id="图层_1" xmlns="http://www.w3.org/2000/svg" xmlns:xlink="http://www.w3.org/1999/xlink" x="0px" y="0px"
	 viewBox="0 0 595.3 595.3" enable-background="new 0 0 595.3 595.3" xml:space="preserve">
<path fill="#FC542B" d="M528.4,123.7c5.7,2.7,12.1,4.2,18.9,4.2c24.7,0,44.6-20,44.6-44.6c0-24.7-20-44.6-44.6-44.6
	c-24.7,0-44.6,20-44.6,44.6c0,7,1.6,13.6,4.5,19.5c-11.7,11.4-23.7,22.3-36.6,32.5c-3.2,2.6-12.1,1.7-16.3-0.9
	c-46.2-29.2-95-51.1-150.8-51.6c-60.9-0.6-114.9,20.2-162.6,56.9c-10.5,8.2-16.2,5.8-23.8-1.7c-10.7-10.6-22.3-20.4-32.2-31.6
	c-0.4-0.4-0.8-0.9-1.1-1.5c3.6-6.4,5.6-13.8,5.6-21.7c0-24.7-20-44.6-44.6-44.6C20,38.6,0,58.6,0,83.3c0,24.7,20,44.6,44.6,44.6
	c5.4,0,10.7-0.9,15.5-2.7c7.8,10.3,15.8,20.7,23.9,30.9c16.8,21.1,16.5,20.6,0.5,41.2c-39.6,51.1-58.1,108.1-48.6,173.2
	c8.1,55.8,36.5,100,81.3,131c61.5,42.6,130.7,60.6,206.8,53.7c44.3-4,85.9-14.5,124.7-34.9c51.4-26.9,88.3-67.8,105.8-123.2
	c17.6-55.8,8.3-110.2-18.8-161.2c-12.3-23.1-28-44.2-42.3-66.5c7.1-9.8,13.5-20.8,21.9-29.8C520.1,134.5,524,128.8,528.4,123.7z"/>
<path fill="#828282" d="M507.2,328.4c1.8,11.3,1.8,22.9-0.1,34.2c-7.9,45.4-32,79.4-70.5,104.3c-68.2,44.4-142.7,50.1-218.7,28.8
	C162,480,116.5,447.2,93,391.1c-16.6-39.6-7.1-79.3,7.4-116.4c10.3-26.2,27.7-49.7,43-73.7c20-31.2,49.5-28,81.5-24.5
	c38.8,4.2,78.2,3.3,117.4,3.1c15.3-0.1,30.5-4.4,45.9-6.3c24.9-3.1,44.2,5.2,60.9,25.3C481.2,237.4,499.5,281.2,507.2,328.4z"/>
<path fill="#FC8D2B" d="M388.1,173.2c-15.4,1.9-30.6,6.2-45.9,6.3c-39.1,0.2-78.6,1.1-117.4-3.1c-32-3.5-61.5-6.8-81.5,24.5
	c-15.4,24-32.8,47.5-43,73.7c-14.5,37.1-24,76.9-7.4,116.4c23.6,56.1,69,88.9,124.9,104.6c76,21.3,150.5,15.6,218.7-28.8
	c38.4-24.9,62.5-58.9,70.5-104.3c1.9-11.3,1.9-22.9,0.1-34.2c-7.6-47.1-26-91-58.2-129.9C432.3,178.4,413.1,170.1,388.1,173.2z
	 M203.9,351.3c-17,0-30.7-13.7-30.7-30.7v-39.1c0-17,13.7-30.7,30.7-30.7c17,0,30.7,13.7,30.7,30.7v39.1
	C234.6,337.5,220.8,351.3,203.9,351.3z M364.7,411.7c-24.4,23-48.9,28.8-67.5,28.8c-3.4,0-6.6-0.2-9.5-0.5
	c-26.7-2.9-50.4-18-59.1-30.6c-4.4-6.4-2.7-15.1,3.7-19.4c6.4-4.4,15-2.7,19.4,3.7c2.8,4,17.6,16.3,39,18.6
	c19.5,2.1,37.9-5,54.9-20.9c5.6-5.3,14.4-5,19.7,0.6C370.6,397.7,370.4,406.4,364.7,411.7z M418.8,320.6c0,17-13.7,30.7-30.7,30.7
	c-17,0-30.7-13.7-30.7-30.7v-39.1c0-17,13.7-30.7,30.7-30.7c17,0,30.7,13.7,30.7,30.7V320.6z"/>
<path fill="#FFFFFF" d="M388.1,250.8c-17,0-30.7,13.7-30.7,30.7v39.1c0,17,13.7,30.7,30.7,30.7c17,0,30.7-13.7,30.7-30.7v-39.1
	C418.8,264.5,405.1,250.8,388.1,250.8z"/>
<path fill="#FFFFFF" d="M345.6,391.4c-17,16-35.4,23-54.9,20.9c-21.4-2.3-36.3-14.7-39-18.6c-4.4-6.4-13-8-19.4-3.7
	c-6.4,4.3-8,13-3.7,19.4c8.6,12.7,32.3,27.8,59.1,30.6c2.9,0.3,6.1,0.5,9.5,0.5c18.6,0,43.1-5.8,67.5-28.8
	c5.6-5.3,5.9-14.1,0.6-19.7C360.1,386.4,351.3,386.1,345.6,391.4z"/>
<path fill="#FFFFFF" d="M234.6,281.5c0-17-13.7-30.7-30.7-30.7c-17,0-30.7,13.7-30.7,30.7v39.1c0,17,13.7,30.7,30.7,30.7
	c17,0,30.7-13.7,30.7-30.7V281.5z"/>
</svg>
